<svg id="Layer_1" data-name="Layer 1" xmlns="http://www.w3.org/2000/svg" viewBox="0 0 319.64 75.32"><defs><style>.cls-1{fill:#231f20;}</style></defs><title>hotmail</title><path class="cls-1" d="M114.25,216.23V142.12h9.1v26.59a20.34,20.34,0,0,1,16.08-7.38,21.64,21.64,0,0,1,10.36,2.35,13.76,13.76,0,0,1,6.29,6.49q1.9,4.16,1.9,12v34h-9.1v-34q0-6.82-3-9.93t-8.36-3.11a14.72,14.72,0,0,0-7.61,2.1,11.8,11.8,0,0,0-5.08,5.69,26.09,26.09,0,0,0-1.52,9.9v29.38Z" transform="translate(-114.25 -142.12)"/><path class="cls-1" d="M168.44,189.38q0-14.91,8.29-22.09a25,25,0,0,1,16.89-6q11.07,0,18.1,7.25t7,20q0,10.37-3.11,16.31a22,22,0,0,1-9,9.22,26.38,26.38,0,0,1-13,3.29q-11.28,0-18.22-7.23T168.44,189.38Zm9.36,0q0,10.32,4.5,15.45a15,15,0,0,0,22.59,0q4.5-5.16,4.5-15.72,0-10-4.52-15.09a15,15,0,0,0-22.57,0Q177.8,179.08,177.8,189.38Z" transform="translate(-114.25 -142.12)"/><path class="cls-1" d="M249.28,208.09l1.31,8a33.67,33.67,0,0,1-6.87.81,15.63,15.63,0,0,1-7.69-1.56,8.8,8.8,0,0,1-3.84-4.12q-1.11-2.56-1.11-10.75V169.62h-6.67v-7.08h6.67v-13.3l9-5.46v18.76h9.15v7.08h-9.15V201a15.85,15.85,0,0,0,.48,5,3.72,3.72,0,0,0,1.56,1.77,6.07,6.07,0,0,0,3.11.66A30.57,30.57,0,0,0,249.28,208.09Z" transform="translate(-114.25 -142.12)"/><path class="cls-1" d="M258.17,216.23V162.54h8.14v7.53a19.14,19.14,0,0,1,6.73-6.34,18.87,18.87,0,0,1,9.55-2.4,17.65,17.65,0,0,1,9.78,2.47,13.25,13.25,0,0,1,5.39,6.93q6.36-9.4,16.58-9.4,8,0,12.28,4.42t4.3,13.62v36.86h-9.05V182.41a24.91,24.91,0,0,0-.88-7.86,7.6,7.6,0,0,0-3.21-3.87,10,10,0,0,0-5.46-1.47,12.73,12.73,0,0,0-9.41,3.77q-3.74,3.77-3.74,12.05v31.2h-9.1V181.34q0-6.06-2.22-9.09t-7.28-3a13.28,13.28,0,0,0-7.1,2,11.46,11.46,0,0,0-4.73,5.92q-1.47,3.89-1.47,11.22v27.86Z" transform="translate(-114.25 -142.12)"/><path class="cls-1" d="M379.45,209.6a33.75,33.75,0,0,1-9.73,6.07,28.12,28.12,0,0,1-10,1.77c-5.89,0-10.43-1.44-13.59-4.32a14.28,14.28,0,0,1-4.76-11.05,15,15,0,0,1,6.5-12.43,22.13,22.13,0,0,1,6.55-3,65.73,65.73,0,0,1,8.08-1.36q11-1.32,16.23-3.14c0-1.24.05-2,.05-2.37q0-5.57-2.58-7.84-3.48-3.08-10.36-3.08-6.42,0-9.48,2.25t-4.52,8l-8.9-1.21a22.1,22.1,0,0,1,4-9.23,17.64,17.64,0,0,1,8-5.41,36,36,0,0,1,12.19-1.89,32.49,32.49,0,0,1,11.17,1.61,14.82,14.82,0,0,1,6.32,4.07,14.44,14.44,0,0,1,2.83,6.2,51.72,51.72,0,0,1,.45,8.39v12.13q0,12.69.58,16.05a20.52,20.52,0,0,0,2.3,6.45h-9.5A19.43,19.43,0,0,1,379.45,209.6Zm-.76-20.32q-4.95,2-14.86,3.44a34.15,34.15,0,0,0-7.94,1.82,7.92,7.92,0,0,0-3.59,3,8,8,0,0,0,1.49,10.38q2.76,2.43,8.07,2.43a18.81,18.81,0,0,0,9.35-2.3,14.21,14.21,0,0,0,6-6.29q1.45-3.09,1.46-9.1Z" transform="translate(-114.25 -142.12)"/><path class="cls-1" d="M402.05,152.58V142.12h9.1v10.46Zm0,63.65V162.54h9.1v53.69Z" transform="translate(-114.25 -142.12)"/><path class="cls-1" d="M424.8,216.23V142.12h9.09v74.11Z" transform="translate(-114.25 -142.12)"/></svg>