<svg id="Layer_1" data-name="Layer 1" xmlns="http://www.w3.org/2000/svg" viewBox="0 0 104.1 308.54"><defs><style>.cls-1{fill:#d6d09e;}.cls-2{fill:#bb3626;}.cls-3{fill:#fff;}.cls-4{fill:none;}.cls-5{fill:#010101;}</style></defs><title>painttube1</title><path class="cls-1" d="M367.8,185.76c1.78,2.31-.35,5.69-.35,5.69a119.49,119.49,0,0,0-17.06,8.88c-9.06,5.69,8.53,119.4-5.33,246.26A119.77,119.77,0,0,1,344,459.74l103.41-8.53s2.13-.71-1.07-11.73-18.83-237-22-240.93-20.25-11-20.25-11-2.2-.41-3.91-5.33C393.11,169.72,366,183.45,367.8,185.76Z" transform="translate(-343.99 -151.19)"/><path class="cls-2" d="M393.32,370.14a2.1,2.1,0,0,1-2.21,1.51c-1.81,0-3.61.2-5.42.27a45,45,0,0,0-4.64.16c-1.21.17-2.48-.1-3.72,0a22.73,22.73,0,0,0-2.8.47c-.22,0-.46,0-.69,0-2.67.16-5.34.27-8,.5-1.5.14-3,.49-4.48.74a.74.74,0,0,1-.14,0l-4.12.2c-.17,0-.42-.09-.51,0a2.33,2.33,0,0,1-2.82.22,9.1,9.1,0,0,0-1.2-2.73c-1.31.56-.49,1.94-1.29,2.71-.59-.57-1.29-1-.76-2.06a1.17,1.17,0,0,0,.07-.93c-.45-.88-.08-1.81-.28-2.7a1.71,1.71,0,0,1,0-.81,29.89,29.89,0,0,0,.69-5.06c.18-1.52.05-3,.11-4.49,0-.56-.11-1.19.68-1.49.18-.06.26-.77.16-1.12a1.26,1.26,0,0,1,.14-1.27.54.54,0,0,0,.12-.38c-.09-.43-.27-.85-.33-1.28a12,12,0,0,1,0-1.49l2.66.79c-.15,1.93-.15,3.8-.45,5.64s-.66,3.65-1,5.51l-1.51-.25a15.52,15.52,0,0,0,.5,1.47,4.87,4.87,0,0,1,.72,2.7c0,.27-.62.24-.44.73a2.38,2.38,0,0,1,0,.8c.5.33.83.45,1.18-.26a14,14,0,0,0,1.56-5.48,3,3,0,0,1,.46-1.19c.84-1.41.85-1.4.11-3,1-.67.8-1.74.83-2.82l-.78.18.21-1.12.61.09.5-2.39c2,.07,4,.13,5.91.23,1.16,0,2.31.2,3.46.24a16.54,16.54,0,0,0,2.22-.14c3-.31,6-.77,9-.92,2.42-.12,4.86.13,7.28.19,1.47,0,2.94,0,4.4,0l.06.32-1.31.65c1,1,1.66,2,1,3.42,1.61.51,1.6.49,1.87-.87a4.66,4.66,0,0,1,.55-1.12l-.24-2a65.35,65.35,0,0,1,9.14-.66c3.06-.06,6.11-.2,9.17-.31,1.22-.66,2.44-.09,3.68-.07a110.86,110.86,0,0,0,11.36-.62,21.64,21.64,0,0,0,5.7-1.52c1.24-.44,2.55-.68,4.06-1.08a2.17,2.17,0,0,0,.05,1.8,11.77,11.77,0,0,1,.58,2.76,5.89,5.89,0,0,0,.22,1.21c.63,1.47,0,3,.27,4.49.14.92-.23,1.88.25,2.8a4.08,4.08,0,0,1-.28,2.6c.19.82.33,1.47.48,2.13a6.82,6.82,0,0,0,.23.77c.05.13.23.26.2.36a3.72,3.72,0,0,0,0,2.65c0,.07-.1.27-.21.35a5.93,5.93,0,0,1-1.65,1.15,6.12,6.12,0,0,1-2-.08,2,2,0,0,0-1.39.16,7.56,7.56,0,0,1-4.07,1c-1.7,0-3.4-.29-5.1-.35a17,17,0,0,0-3.42-.11,4.13,4.13,0,0,1-1.46-.37c-.95.65-2-.14-3,.1a1.79,1.79,0,0,0-3.1-.43l-1.68-.54a5.32,5.32,0,0,1-1.38.52c-1.73.12-3.47.06-5.19.23a12.15,12.15,0,0,1-3.56.07c-.57-.11-1.14-.15-1.71-.27a5.61,5.61,0,0,0-2.63.26,3,3,0,0,1-1.12-.14c-.14-.48-.25-.87-.37-1.26l-1.22-.6c.09.31.12.61.18.62A9,9,0,0,0,393.32,370.14Zm-40.23-.91c-.68.11-.68.11-.63.79Z" transform="translate(-343.99 -151.19)"/><path class="cls-2" d="M389,208.65c-.22,0-.56.18-.63.1-.51-.6-1.18-.48-1.82-.47a63.25,63.25,0,0,0-17.17,2.38,37.37,37.37,0,0,0-7.39,3.06,5.78,5.78,0,0,1-1.56.37,13.63,13.63,0,0,1-1.14,1.24c-1.1.92-2.31,1.71-3.35,2.69a13.5,13.5,0,0,0-3.65,5.66,9.5,9.5,0,0,1,1.52-5.13,21.79,21.79,0,0,1,8-6.71,47.67,47.67,0,0,1,11.49-4c2.24-.53,4.56-.7,6.85-1,.73-.1,1.46-.22,2.19-.27,1.55-.11,3.11-.18,4.72-.27-.2-.7-.69-.77-1.22-.76a68.4,68.4,0,0,0-16.19,2.18A31.18,31.18,0,0,0,354.86,216c-.42.43-.75.94-1.13,1.41a2.28,2.28,0,0,1-.66.61,8.9,8.9,0,0,1,2.1-3.32,29.11,29.11,0,0,1,12.93-7.21,7.17,7.17,0,0,1,1.49-.12c.29-.23.53-.57.83-.64,2.08-.45,4.17-.84,6.26-1.26.11,0,.2-.15.38-.28a3.33,3.33,0,0,0-2.92-1,9.63,9.63,0,0,0-1.48.35c-1.3.37-1.41.33-2.32-.94a2.1,2.1,0,0,0,.6-2.06,5.5,5.5,0,0,1,.74-2.67c.19-.43,1.63-.29,2.34.06.36.18,1.05.44,1.1.36.49-.81,1.16-.21,1.67-.18s1,.26,1.38-.4c.12-.21.78-.27,1.1-.15a4.74,4.74,0,0,0,3.82,0,6.39,6.39,0,0,1,2.62,0c2,.08,4,.09,6,.31.7.08,1-.29,1.37-.58l1.19.68a13.89,13.89,0,0,0-.28,1.85,19.61,19.61,0,0,0,.22,2.12,9.31,9.31,0,0,1-2,.48c-.42,0-.77-.09-1.1.24a.42.42,0,0,1-.39.06c-.7-.44-1.54-.17-2.19-.38a11.29,11.29,0,0,0-3.55-.3,19.64,19.64,0,0,0-3.42.35,16.47,16.47,0,0,0-2.46.82c-.84-.32-.84-.32-2.4.12.21.13.37.32.47.29.49-.14.95-.43,1.2.36,0,.13.58.19.87.15a79.72,79.72,0,0,1,10.81-.54c.19,0,.4.08.56,0,1.46-.5,2.81.36,4.24.36.27,0,.54.31.79.73h-3.27a1,1,0,0,0,1.1.86,9.23,9.23,0,0,1,4.07,1.16c.21.12.55,0,1,0l.34,1a2.35,2.35,0,0,1-.62.07c-2.06-.54-4.17-.27-6.25-.4-.72,0-1.45-.09-2.18-.06a3.13,3.13,0,0,0-.9.32Zm.48-2.3c.51-.09,1.17.37,1.55-.38-1.25-.45-1.25-.45-1.56.38-.71-.81-1-.85-2-.19Z" transform="translate(-343.99 -151.19)"/><path d="M393.58,253.1a21.33,21.33,0,0,1,2.63,1.26,3.55,3.55,0,0,1,1.74,3,10.34,10.34,0,0,1-.24,2.89,5.49,5.49,0,0,1-5.33,4.17c-3.71.23-7.43.28-11.15.39a5.69,5.69,0,0,1-1.07-.18c.17-.76.61-.86,1.14-.94,1.2-.17,1.53-.5,1.53-1.69,0-2.09-.06-4.18-.11-6.27s-.11-4.36-.18-6.54a2.38,2.38,0,0,0-.22-.94,34.2,34.2,0,0,0-2.24,5.26c-.66,1.84-1.32,3.67-2,5.48a44.33,44.33,0,0,1-2.14,5.55c-.34-.38-.57-.55-.66-.77a13.4,13.4,0,0,1-1.24-5.26,21.57,21.57,0,0,0-.46-6.35l.27-.09,2.93,6.3c.43-.9.75-1.48,1-2.1q1.69-4.49,3.34-9c.56-1.54.54-1.54-1.07-1.82a2.24,2.24,0,0,1-.41-.18c.07-.67.59-.83,1.08-.86,2.82-.21,5.64-.52,8.46-.5a19.08,19.08,0,0,1,4.75.91c2,.54,2.79,2.14,2.87,4a4.19,4.19,0,0,1-2.58,4C394,252.94,393.76,253,393.58,253.1Zm-7.12,5h0c.11,1.25.18,2.5.34,3.73a1.81,1.81,0,0,0,1.33,1.64,4.85,4.85,0,0,0,5.19-7.84c-1.61-1.73-3.64-1.89-5.78-1.63a1.18,1.18,0,0,0-1,1.3Zm-.27-8.84c.06.64.13,1.66.25,2.67a1.05,1.05,0,0,0,1.23,1,11.32,11.32,0,0,0,3.1-.54,3.69,3.69,0,0,0,2.26-3.52,3.21,3.21,0,0,0-2-3.33,10.84,10.84,0,0,0-3.51-.56c-.82,0-1.23.5-1.29,1.36S386.19,248.07,386.19,249.28Z" transform="translate(-343.99 -151.19)"/><path class="cls-2" d="M367.33,198.56l.25.53c-.36.27-.88.47-1,.81s.13.84.23,1.32a2,2,0,0,0-.6.22c-.57.44-.54.92.06,1.33a2.38,2.38,0,0,1,.8.75l-1.61-.49c.37.92.33,2,1.48,2.2-1.78,1.93-4.32,2.42-6.36,3.8a39.27,39.27,0,0,0-6.33,4.86,10.14,10.14,0,0,1-1,.75c.27-1.57.47-3-.74-4.26.68-.32,0-1.5,1.2-1.62l-.6-.91.64-.42c-.47-.27-1.11-.5-1.09-.64.09-.65-.39-.58-.83-.7l.26,1.06-.95-.3a10.8,10.8,0,0,0-.2-1.26c-.17-.6-.4-1.13.16-1.7s0-1.1-.22-1.61a1.9,1.9,0,0,1,.23-2c.17-.17.44-.41.64-.38,1.21.17,2.23-.54,3.38-.65,1.79-.16,3.58-.3,5.37-.41.23,0,.46.26.71.31s.32-.28.41-.24a2.92,2.92,0,0,1,.64.44c.58.48.7.43,1-.48h1.2c.6.43.6.43.71,0l2.16-.24Z" transform="translate(-343.99 -151.19)"/><path d="M363.29,303.05l2.62,1.25A40.12,40.12,0,0,0,378.42,308a49.5,49.5,0,0,0,11.27.39c3.92-.4,7.82-1,11.69-1.76a78,78,0,0,0,8.24-2,27.09,27.09,0,0,0,14.63-11c.68-1,1.45-1.92,2.21-2.86,1.68-2.07,2.44-4.57,3.37-7a21.71,21.71,0,0,1,1-2.49,3.22,3.22,0,0,1,.07,1c-.32,1.21-.69,2.4-1.05,3.6-.16.53-.37,1.05-.52,1.58a12.28,12.28,0,0,1-2.19,4.47c-1.74,2.18-3.39,4.43-5.19,6.56a26,26,0,0,1-8.39,6.08c-4.5,2.29-9.35,3.18-14.21,4.09A70.36,70.36,0,0,1,381,309.76a42.7,42.7,0,0,1-15.14-3.92c-.72-.34-1.44-.67-2.12-1C362.88,304.3,362.89,304.28,363.29,303.05Z" transform="translate(-343.99 -151.19)"/><path d="M403.17,244.26c-.1.43-.2.83-.28,1.24a8.75,8.75,0,0,0-.2,1.23c-.06,1,.51,1.89.13,3a10.6,10.6,0,0,0-.05,3.19v6.29a3.47,3.47,0,0,0,0,.56c.36,3,1.19,3.13,3.66,2.72a7.86,7.86,0,0,0,2.9-1.57c.46-.33.69-1,1.07-1.42a4.89,4.89,0,0,1,.81-.61c0,1.4,0,2.63,0,3.87,0,.52-.47.6-.92.63-1.39.07-2.78.16-4.17.26l-7.77.56a13.26,13.26,0,0,1-1.5-.08c.12-.88.72-.84,1.17-.95,1.21-.29,1.59-.65,1.58-1.88,0-3.16-.1-6.33-.14-9.49,0-1.35,0-2.7,0-4.05a13,13,0,0,0-.07-1.53,1.38,1.38,0,0,0-1.37-1.32c-.89-.14-.89-.14-1.37-.74.64-.57,1.41-.24,2.11-.29a13.84,13.84,0,0,1,2.23,0C401.67,243.94,402.39,244.12,403.17,244.26Z" transform="translate(-343.99 -151.19)"/><path d="M371.63,264.45a3.08,3.08,0,0,1-.62.07l-7.21-.6c-.49,0-.92-.12-1-.7.08-.1.12-.22.19-.24,1.48-.3,1.52-.3,1.17-1.77-.49-2-.86-4.11-2.54-5.73l.69-.58-3.1-5.91-.92,3.72c-.74-.23-.59-.71-.52-1.07.54-2.54,1.11-5.07,1.69-7.6a3,3,0,0,1,.4-.72c1,2.18,1.88,4.23,2.79,6.29s1.75,4,2.62,6,1.26,4.34,2.57,6.27a101.1,101.1,0,0,0,0-14.87c2.49.78,5,5.45,3.83,7.45l-2.54-6.15-.28.05a5.69,5.69,0,0,0-.07.71c0,3.12.06,6.23.12,9.35,0,1.06.1,2.12.22,3.18s.42,1.71,1.55,1.84C371.14,263.53,371.68,263.64,371.63,264.45Z" transform="translate(-343.99 -151.19)"/><path d="M416.54,270.08l-.49-1h-2.7l-.05-.31c.6-.15,1.22-.26,1.8-.46s1.34.14,1.69-.8l-1.13-.26c0-.12,0-.25,0-.37,0-.48.1-.93-.68-.9-.2,0-.55-.53-.62-.87a4.19,4.19,0,0,1,.09-1.25c-.69-.33-1.58-.41-1.7-1.38,1.75-.88,1.83-.88,1.77-2.86-.14-4.66-.36-9.32-.57-14-.05-1.11-.24-1.24-1.4-1.53a2.84,2.84,0,0,1-.62-.27c-.06,0-.06-.15-.14-.4,2.2-.57,4.47-.42,6.65-.91.27.57.23.86-.3,1.06-.69.25-1.28.62-1.12,1.45l1,.09,0,.27-1,.67c0,1.19,0,2.4,0,3.6.06,2.77.11,5.55.24,8.32a12.73,12.73,0,0,0,.55,2.12c.09.41.11.83.17,1.34l1.13.65c-.91,1.21-2.27.43-3.16,1.08a11.37,11.37,0,0,1,0,1.17c-.13,1.07-.14,2.07,1,2.64.23.11.31.51.53.92,3.78-.2,7.56-1.43,11.48-1.61-.76.81-1.81.78-2.75,1-2.52.53-5.06,1-7.61,1.41C417.75,268.79,417,268.8,416.54,270.08Z" transform="translate(-343.99 -151.19)"/><path class="cls-2" d="M421.55,203c-.3.32-.6.51-.68.77s.27.59.42.59a1.13,1.13,0,0,0,.75-.42c.17-.23.13-.61.28-.87s.35-.29.64-.51c.14,1.7.28,3.22.41,4.75l-.88.72c-.14,0-.28,0-.4-.07-.7-.24-1.4-.46-2.07-.73-.3-.11-.74-.3-.78-.52-.23-1.37-1.64-1.58-2.37-2.46a12.71,12.71,0,0,0-1.88-1.54c-.12.5-1,.8-.23,1.52-.92.8-.38,2.2-1.24,3a1.26,1.26,0,0,1-.92.35c-.61-.16-1.39-.33-1.7-.78-.66-.95-1.9-.88-2.56-1.72-1.2.27-1-.89-1.45-1.33.82-1,1,.11,1.52.45.15-.37.43-.7.35-.9-.36-1,1.19-1.66.31-2.63.56-.72,1.15-.57,1.78,0l.69-1c1.45.46,3.08-.61,4.69.38-.62.71-1,1.54-2.22,1.21-.41-.11-1,.33-1.56.56l.8,1.27c1.32-.66,2.76-.94,3.8-2,.09-.09.24-.22.35-.21.91.08,1.18-.63,1.58-1.3l-.79-1.31,3,.27-.73,1.19c.92.25,1.39.71,1,1.77A3.33,3.33,0,0,0,421.55,203Zm-1.66-1.5.21-1.19C419.42,200.46,419.17,200.7,419.89,201.47Z" transform="translate(-343.99 -151.19)"/><path d="M395.6,288.22a12.81,12.81,0,0,0-1.54.73,17.39,17.39,0,0,0-5.12,5.06,4.28,4.28,0,0,0-.8,2.9,1.22,1.22,0,0,0,1.27,1.21,4.68,4.68,0,0,0,4.38-3.07,1.3,1.3,0,0,0-1.27-1.62,7,7,0,0,0-2.25.53.86.86,0,0,0-.62,1.1c.12.33.51.57.8.82.11.09.29.12.4.27a1.09,1.09,0,0,1-1.5-.67,1.75,1.75,0,0,1,.72-2.2,3.44,3.44,0,0,1,3.7.14c.23.15.43.34.75.6.53-.38,1-.77,1.55-1.12.92-.6,1.17-.47,1.6.53a4.92,4.92,0,0,0,.92,1.18h2l1.39-1c1,.84-.4,2,.73,2.78,1.55-1.68,3.26-3.2,3.71-5.58,0-.13.05-.31.15-.38a4.33,4.33,0,0,1,.65-.31c0,.21.15.45.09.61-.33.81-.71,1.59-1,2.3.16.22.19.33.27.37,1.66.88,1.67,2.11.2,3.3s-3.06.85-4.57.26c-.47-.19-.71-1-1.11-1.54l-1.81,1.53-2.74-.22-.92.75c-.49-.3-.92-.65-1.58-.21a15.44,15.44,0,0,1-2.52,1.12,6.85,6.85,0,0,1-1.45.48,2.11,2.11,0,0,1-2.55-2.67,8,8,0,0,1,1.44-3.12,54.48,54.48,0,0,1,4.45-4.41,2.85,2.85,0,0,1,2.08-.77Zm8.1,8.43c1.84.22,2.95-.29,3.41-1.39.26-.63-.07-1.21-.73-1.09-.45.07-1.16.38-1.23.7A2.9,2.9,0,0,1,403.7,296.65Zm-10-.14a6.51,6.51,0,0,0,3.24-3.09A6.31,6.31,0,0,0,393.71,296.51Z" transform="translate(-343.99 -151.19)"/><path d="M366.88,298l.9-.19c.54-1.23,1-2.31,1.53-3.44a2.66,2.66,0,0,1,.79-.12,2.38,2.38,0,0,0,2.18-1c1.2-1.43,2.34-2.91,2.49-4.88,0-.07.11-.13.35-.39a3.85,3.85,0,0,1,.09,1.1c-.32,1.31-.69,2.6-1,3.9-.12.44-.22.88-.38,1.52l.77-.21c1.51-.39,1.51-.39,2.25,1,1.34-.1,1.35-2,2.84-2.18a2.93,2.93,0,0,1-.84,2.25c-.44.61-1,1.15-1.65,1.9,1.3.1,1.58-.77,2.08-1.29s1-1.15,1.56-1.79c.58.69,0,1.07-.1,1.51s-.6,1.09,0,1.53,1.07,0,1.52-.34a4.13,4.13,0,0,0,2.08-2.94c-.28-.65-1.3.09-1.41-.79.07-.09.14-.21.18-.21,1.35.18,2-.56,2.46-1.71a4.06,4.06,0,0,1,2-2.56c.06.27.21.54.13.72-.28.68-.64,1.33-1,2-.53,1.12-.47,1.24,1.15,1.49a7.59,7.59,0,0,0-2.13.93,6.11,6.11,0,0,0-1.28,2,14.85,14.85,0,0,0-.65,2.11l1.45.55c-.43.22-.66.43-.91.45-1,.11-.8-1-1.33-1.48-.25.09-.54.18-.82.31-1.46.67-1.55.65-2.55-.75-.33.23-.66.45-1,.69s-.66.49-1,.72c-1.1-.16-.77-1.19-1.2-1.83-1.35,1.28-2.67,2.59-4.88,1.55l2.41-5.87-.21-.12c-.66.77-1.36,1.5-1.95,2.32a1.66,1.66,0,0,0-.06,1.07,2.64,2.64,0,0,1-1.76,3,1.2,1.2,0,0,1-.4.11l-2.69-.34Zm9.14-3.1a3.12,3.12,0,0,0-3.43,2.81C374.23,298,375.69,296.79,376,294.85Zm-5.26.48c-1.24-.05-2,.7-1.91,1.76a.67.67,0,0,0,1.07.56A1.83,1.83,0,0,0,370.76,295.33Z" transform="translate(-343.99 -151.19)"/><path d="M423.49,248.15l-.16,1c-.49-1,.19-2.29-1.21-3,0,.9-.31,1.67.23,2.43a.74.74,0,0,1,0,.49c0,.18-.27.38-.22.49.64,1.63-.62,3.28.05,4.91.08.2-.24.55-.47,1-.24-.41-.48-.65-.5-.91-.06-.78,0-1.58,0-2.37,0-1.51,0-3,0-4.55a25.71,25.71,0,0,0-.21-2.91c-.1-.79-.24-1.61-1.34-1.62-.14,0-.27-.2-.47-.37,1-.23,1.85-.45,2.72-.62s1.22.06,1.79,1a49.68,49.68,0,0,1,4.51,9.45,13.29,13.29,0,0,1,.71,4.93c-.58.05-.7-.37-.87-.72l-1.76-3.48c-.64-1.27-.85-1.35-2.24-.86l-.44-.67a2.75,2.75,0,0,1,.58-.15c1.15,0,1.25-.12.76-1.13A5,5,0,0,0,423.49,248.15Z" transform="translate(-343.99 -151.19)"/><path d="M412.59,306.39c-.24.77-.88.93-1.41,1.1a47.47,47.47,0,0,1-5.09,1.43q-5.94,1.15-11.92,2.1a66.17,66.17,0,0,1-13.7.42,43.34,43.34,0,0,1-11.78-2.68c-2-.8-3.91-1.71-5.86-2.6a7,7,0,0,1-1.08-.76l.13-.3a3.88,3.88,0,0,1,.78.2,51.18,51.18,0,0,0,11.44,4.34,55,55,0,0,0,8,1.08,63.65,63.65,0,0,0,14.26-.8,95.21,95.21,0,0,0,13.47-2.87c.8-.24,1.58-.53,2.37-.79C412.26,306.24,412.36,306.31,412.59,306.39Z" transform="translate(-343.99 -151.19)"/><path d="M383.54,318.93h.65v4.84l-4.5.91-.43,1.12a3.28,3.28,0,0,1-1.61-3.18c-1.09.33-.22,1.3-.84,1.79a2,2,0,0,1-.31-.66c-.07-.88,0-1.77-.13-2.64-.11-1-.72-1.59-1.48-1.52s-1.33.78-1.29,1.82.08,1.81.13,2.75c-.73-.05-.58-.5-.6-.83-.06-1-.05-2-.19-3.05a1,1,0,0,0-1.21-.91c-.65.07-1.18.32-1.22,1.08,0,.45,0,.91,0,1.36s0,1.11,0,1.67c0,.15-.11.29-.45.4-.07-1.66-.15-3.31-.23-5.08,1.17.09,2.28-.3,3.3.44.2.15.63.07.92,0,1.89-.52,2.73,0,2.92,1.95,0,.3.1.59.18,1.09a5.2,5.2,0,0,0,1.17-3.08h.29c.14,1.18.27,2.37.42,3.64l1,.06c.36-1.31-.29-2.65.2-3.87l.32,0,.09,1.14c.05.67-.13,1.36.48,2,.2.18,0,.75,0,1.13,1.53.69,2.53.13,2.56-1.44C383.67,320.9,383.59,320,383.54,318.93Z" transform="translate(-343.99 -151.19)"/><path d="M412.83,301.28a9.55,9.55,0,0,1-4,2.05,91.79,91.79,0,0,1-16.65,3.33,58.36,58.36,0,0,1-8.77.29,43.33,43.33,0,0,1-18.24-4.5,3.91,3.91,0,0,1-.46-.37c.44-.41.75-.09,1,.05a38,38,0,0,0,9.88,3.32c2.14.37,4.32.56,6.49.78a36.08,36.08,0,0,0,3.75.19A72.29,72.29,0,0,0,399,305c2.78-.55,5.55-1.15,8.29-1.84,1.48-.37,2.9-1,4.35-1.48C412,301.52,412.42,301.41,412.83,301.28Z" transform="translate(-343.99 -151.19)"/><path d="M375.54,270.14c.77-.05,1.53-.13,2.3-.14,1.48,0,3,.09,4.43.06,2.42-.06,4.83-.2,7.25-.26.83,0,1.06-.41,1.12-1.22l.55,1.13,21.42-1.15c-.22.31-.33.63-.45.63-2.59.1-5.18.16-7.77.25-.4,0-.79.17-1.19.2-4.35.27-8.71.56-13.07.79-3.85.2-7.7.34-11.56.46a21.54,21.54,0,0,1-2.77-.22,1.12,1.12,0,0,1-.37-.17Z" transform="translate(-343.99 -151.19)"/><path d="M350.19,253a38.2,38.2,0,0,1,5.15.58c-.07.78-.51.79-.93.79-.74,0-1,.41-1,1.07,0,1.49.08,3,.11,4.47a2.46,2.46,0,0,1-3.29,2.6c-.06,0-.08-.15-.16-.32,1.08-.47,1.25-1.41,1.21-2.48s0-1.84.06-2.77C351.43,255,351.43,255,350.19,253Z" transform="translate(-343.99 -151.19)"/><path d="M401.43,237.7c.15.58-.23.72-.66.74-.93.06-1.86.09-2.8.11l-15.3.28c-2.74.06-5.49.11-8.23.2a7,7,0,0,1-3.6-.76h1.58c4,0,7.92,0,11.88-.1,4.51-.06,9-.18,13.52-.27,1.05,0,2.1,0,3.15,0a1.29,1.29,0,0,0,.46-.19Z" transform="translate(-343.99 -151.19)"/><path d="M411.88,335.27a4,4,0,0,1-1.13.46c-2.65,0-2.65,0-3.45-.87a5.48,5.48,0,0,1-4.08.76,4,4,0,0,1-3-4.88,4.07,4.07,0,0,1,4.64-2.86,2.45,2.45,0,0,1,2.06,1.38c-.73-.22-1.23-.41-1.75-.53-2.44-.58-3.87.61-4.27,2.2a3.37,3.37,0,0,0,3,4.15,8.92,8.92,0,0,0,1.92-.23c.49-.09,1-.26,1.5-.41.26-1.55,2-1.45,2.86-2.27-.58-1.24-.85-1.31-2.47-.68.21-1,.95-.93,1.61-.94a1.41,1.41,0,0,1,1.54,1.11,3.35,3.35,0,0,1,.1,1.5A1.73,1.73,0,0,0,411.88,335.27Zm-1.83-2.18a15.51,15.51,0,0,0-1.53.57.8.8,0,0,0-.44,1,.9.9,0,0,0,1.14.54C410.18,335.06,410.37,334.59,410.05,333.09Z" transform="translate(-343.99 -151.19)"/><path d="M359.14,301.59a4.78,4.78,0,0,1-1.17-.52,23.76,23.76,0,0,1-8.07-10.79,7.53,7.53,0,0,1-.39-2.62c.14.36.27.74.42,1.1a24.53,24.53,0,0,0,6.49,9.1c.69.62,1.4,1.23,2,1.92a9.7,9.7,0,0,1,.93,1.45Z" transform="translate(-343.99 -151.19)"/><path class="cls-3" d="M366.07,394c-1.14-.12-1.29-1.12-1.64-1.9-.84-.07-.37.57-.53.9-.41.13-1,.15-1.22.43a4.21,4.21,0,0,0-.53,1.45l1,1.18c-.62,1-1.07,0-1.45-.15s-.7-.74-1.09-1.2l-.63.07c0-.16-.08-.3-.05-.33a8.41,8.41,0,0,0,1.42-1.37,1.81,1.81,0,0,0,.05-1.41,16.23,16.23,0,0,0-1.2-2.1c1.73-.88,2-.81,3,.65.18.26.38.52.57.77-.37-.05-.77-.17-1,.33.42-.06.85.73,1.24-.09a3.76,3.76,0,0,1,2,2.8Z" transform="translate(-343.99 -151.19)"/><path d="M419.36,215.79a24.65,24.65,0,0,1,7.9,13.55l-3.91-7C422,220,420,218.25,418,216.23,418.28,215.69,418.93,215.9,419.36,215.79Z" transform="translate(-343.99 -151.19)"/><path d="M404.45,319.29a4.08,4.08,0,0,1-4.14,4.27c-1.83-.14-4.23-1.64-4.12-3.88a4.5,4.5,0,0,1,4.29-4.58A4.13,4.13,0,0,1,404.45,319.29Zm-7.37.1c-.13,1.92,1.16,3.39,3.46,3.54,1.56.11,3.26-1.78,3.23-3.57a3.6,3.6,0,0,0-3.38-3.59A3.53,3.53,0,0,0,397.08,319.39Z" transform="translate(-343.99 -151.19)"/><path d="M402.74,346.27c.25-1.44,1.65-1.63,2.82-2.07,0-1.42-.2-1.51-2.38-1.14a1.72,1.72,0,0,1,2.12-.71,1.94,1.94,0,0,1,1.05,1.81c0,.45-.07.91-.11,1.37s.08,1.09.82,1.21c-.34.56-.6,1-1.26.67a.92.92,0,0,0-.67,0,2.09,2.09,0,0,1-2.48-.61c-2.29,1.47-5,1.25-6.37-.73-1-1.52-.78-4.7,1.37-5.51a5.13,5.13,0,0,1-.33.72c-.12.2-.31.35-.44.54a3.39,3.39,0,0,0,0,4,3.42,3.42,0,0,0,4.13,1.07C401.52,346.65,402.07,346.49,402.74,346.27Zm2.76-1.52a5.15,5.15,0,0,0-1.48.59,1.54,1.54,0,0,0-.46,1.16c0,.42.72.61,1.26.42C405.85,346.55,406,346.25,405.5,344.75Z" transform="translate(-343.99 -151.19)"/><path d="M354.16,273.64l.18-1.22.37,0c.14.54.29,1.08.43,1.63.24.89.43,1.8.75,2.67.09.25.53.38.81.57.16-.25.43-.49.46-.76.13-1.24.19-2.48.28-3.81a7.28,7.28,0,0,1,1.75,0c.91.21,1.37,1.22.77,1.81-.94.91-.47,1.64,0,2.46.1.18.18.37.35.7-1.37-.09-1.23-1.4-1.95-1.94-.7.55-.28,1.18-.13,1.85H355a5.39,5.39,0,0,0,0-1.07c-.09-.39-.15-.85-.73-.87s-.65.44-.73.84a4.11,4.11,0,0,0,0,.87l-.8-.15c.5-1.27,1-2.44,1.43-3.62-.24,1.17-.24,1.17.42,1.5A1.35,1.35,0,0,0,354.16,273.64Zm3.86-.72v2.17c.71.18,1.2.1,1.35-.71S359.3,273.26,358,272.92Z" transform="translate(-343.99 -151.19)"/><path d="M408.73,211.35l.4-1.39a5.25,5.25,0,0,1,.83.17,36.86,36.86,0,0,1,6.09,3.05,3,3,0,0,1,1.56,1.93,1.52,1.52,0,0,1-1.68-.19c-1.06-.81-2.21-1.51-3.33-2.25-.14-.1-.34-.25-.47-.22C410.74,212.77,409.9,211.6,408.73,211.35Z" transform="translate(-343.99 -151.19)"/><path d="M425.63,271.47c-.46-.18-.83-.74-1.24-.17a.85.85,0,0,0,.3,1.31,2,2,0,0,1,1,2.58c-.06.17-.12.45-.24.48a23.57,23.57,0,0,1-2.49.56c-.54.08-.8-.36-1-.78a1.35,1.35,0,0,0-.75-.66l.21,1.69-1.11.27v-5.16c.62-.19,1.43-.66,2.07,0s.24,1.55-.26,2.36l1.21,2.09.28-1a.76.76,0,0,1,.32.11c.3.32.63.67,1,.25a1,1,0,0,0,0-1.4c-.19-.25-.53-.38-.76-.6a1.7,1.7,0,0,1,.45-2.78C425.3,270.35,425.57,270.63,425.63,271.47Zm-4.58.32v2c.65,0,.89-.33.92-.85S422,271.87,421.05,271.79Z" transform="translate(-343.99 -151.19)"/><path class="cls-3" d="M428.68,393.49l-.53.77.87.14.35,1.22-.9.65-.24-1c-1.16.44-1.44,1.45-1.87,2.31-1.44-.38-1.72-.84-1.55-2.33a1.09,1.09,0,0,0-.27-.86c-.8-.59-.54-1.17-.1-1.79.13-.18.29-.34.48-.57.27.18.48.34.71.47s.4.18.78.35l-1.43.24.41,1.55.73-1.1.73.83.81-.42-.5-1.17Z" transform="translate(-343.99 -151.19)"/><path d="M374.82,336.36c-.56.31-.79.55-1,.54a12.3,12.3,0,0,1-2.79-.3c-.28-.07-.47-.83-.53-1.29a1.21,1.21,0,0,1,.91-1.26c.56-.22,1.14-.35,1.7-.52,0-1.29-.48-1.72-1.62-1.5a4.87,4.87,0,0,1-1.61.09c-1.08-.17-1.82.26-1.92,1.33-.08.83,0,1.67,0,2.51a7.64,7.64,0,0,1-.14.76c-.84-.5-.44-1.11-.44-1.64s0-1.2-.08-1.79-.06-1.19-.1-1.94a2.52,2.52,0,0,0,2.11-.13c1,.65,2.14.15,3.21.28a1.17,1.17,0,0,1,1.12,1.21c0,.7,0,1.4,0,2.09S373.76,336.07,374.82,336.36Zm-1.65-2.07a1.6,1.6,0,0,0-1.9.53,1.29,1.29,0,0,0-.09,1.12,1.08,1.08,0,0,0,.92.4,3.48,3.48,0,0,0,1.07-.45Z" transform="translate(-343.99 -151.19)"/><path d="M371.21,347.12a7.47,7.47,0,0,1-.53-.64,1.59,1.59,0,0,1,1.1-2.69,20.49,20.49,0,0,1,2.36-.13,8.51,8.51,0,0,0-.1,1.52,1.47,1.47,0,0,1-.94,1.67l-1.79.86a4.12,4.12,0,0,0,.87.51,7.8,7.8,0,0,0,1,0c.91,0,1.43.38,1.47,1a1.2,1.2,0,0,1-1.06,1.29,10.29,10.29,0,0,1-2.48.18c-.55,0-1.09-.54-.77-1C370.8,348.85,370.54,347.86,371.21,347.12Zm-.06-2.4c-.21.72-.37,1.38.45,1.82a1.24,1.24,0,0,0,1.6-.4,1,1,0,0,0,.07-1.26C372.6,344,371.89,344.49,371.15,344.72Zm-.31,5.12a2.4,2.4,0,0,0,2.79.11.6.6,0,0,0,.07-1.11A2.3,2.3,0,0,0,370.84,349.84Z" transform="translate(-343.99 -151.19)"/><path d="M363.49,345.28c-.11-1.26-.57-1.73-1.52-1.41a3.6,3.6,0,0,1-1.75.06c-1.15-.15-1.74.31-1.79,1.49,0,.87,0,1.74,0,2.69-.52-.7-.64-2.05-.49-4.86,1,.28,2-.44,3,.2.18.11.54-.05.81-.1,1.58-.31,2.32.26,2.35,1.82,0,.33,0,.65,0,1a2.16,2.16,0,0,0,.85,1.94c-.17.2-.29.45-.41.45a12.4,12.4,0,0,1-2.59-.12,1.71,1.71,0,0,1-1-1,1.42,1.42,0,0,1,.81-1.62A17.21,17.21,0,0,1,363.49,345.28Zm.12.58a13.84,13.84,0,0,0-1.5.36.8.8,0,0,0-.54,1.11,1,1,0,0,0,1.13.61C363.51,347.85,363.74,347.4,363.61,345.86Z" transform="translate(-343.99 -151.19)"/><path d="M409.5,320.78c.27-.92,1.3-.52,1.8-1,.2-1.42-.21-1.77-1.55-1.28a2.18,2.18,0,0,1-1.3.18c-1.52-.34-2.42.49-2.41,2.12,0,.6.07,1.2.08,1.81a5.69,5.69,0,0,1-.18.85c-.7-1-.4-1.89-.45-2.74s0-1.74,0-2.53c.67-.12,1.36-.26,2-.37a5.3,5.3,0,0,1,.69,0c.44,0,.88,0,1.31,0s.64-.13,1-.15c1.06-.07,1.58.41,1.57,1.44,0,.51-.05,1-.06,1.53,0,.73-.16,1.51.81,1.74-.57,1.26-1.71.09-2.37.84.17-1,2-1.31.86-2.74l-1.83.29Z" transform="translate(-343.99 -151.19)"/><path d="M419.56,347a6.79,6.79,0,0,1-.12-.89c0-.65,0-1.3-.05-1.95,0-1-.26-1.28-1-1.33a1.42,1.42,0,0,0-1.67,1.28c-.05.6,0,1.21,0,1.81a2.27,2.27,0,0,1-.3,1.22,2.45,2.45,0,0,1-.26-.66c-.05-.78,0-1.58-.1-2.36-.11-1-.45-1.28-1.15-1.29a1.47,1.47,0,0,0-1.51,1.35c-.06.78,0,1.57,0,2.35a5.25,5.25,0,0,1-.24,1c-.24-.39-.36-.5-.36-.61,0-1.44,0-2.88,0-4.43,1.23.2,2.41-.58,3.63.11.22.12.68-.14,1-.27,1.51-.59,2.46,0,2.5,1.61,0,1,0,2.06,0,3.09Z" transform="translate(-343.99 -151.19)"/><path d="M392.31,323.68c-.07-.83-.13-1.41-.16-2,0-.37,0-.75,0-1.12-.05-.95-.45-1.51-1.08-1.54a1.73,1.73,0,0,0-1.7,1.65c0,.79.06,1.58.06,2.36,0,.17-.16.34-.3.61-.52-.59-.28-1.16-.32-1.68s0-.84,0-1.25c0-1-.36-1.39-1.14-1.43a1.49,1.49,0,0,0-1.66,1.33c-.07.69,0,1.39,0,2.09a1.89,1.89,0,0,1-.27,1c-.43-1.56-.14-3.15-.39-4.7l2.05-.36c.14,0,.31-.13.4-.08a3.31,3.31,0,0,0,3-.06,1.48,1.48,0,0,1,1.87,1.23c.14,1.1.16,2.21.19,3.32C392.84,323.19,392.63,323.32,392.31,323.68Z" transform="translate(-343.99 -151.19)"/><path d="M389.66,276.51a2.81,2.81,0,0,1-5.61,0,3,3,0,0,1,3-2.82A2.58,2.58,0,0,1,389.66,276.51Zm-4.51.2a4.67,4.67,0,0,0,.3,1c.43.89,1,1.2,1.75,1.06a1.9,1.9,0,0,0,1.47-1.81,5.87,5.87,0,0,0-.31-1.76,1.27,1.27,0,0,0-1.52-.93C385.68,274.39,385.14,275.06,385.15,276.71Z" transform="translate(-343.99 -151.19)"/><path d="M418.6,320.11a2.42,2.42,0,0,1-.62-2.9c.57-1.21,1.8-1.1,2.84-1.28,0,.76.07,1.41.09,2.06a2.22,2.22,0,0,1-1,2c-.38.26-1,.38-1,1.23a11.46,11.46,0,0,1,1.29.12c.59.11,1.18.21,1.31,1a1.46,1.46,0,0,1-.76,1.64,3.16,3.16,0,0,1-.9.34c-.65.14-1.36.22-1.81-.37s-.12-1.11.11-1.7A11.8,11.8,0,0,0,418.6,320.11Zm1.79-1.82c0-.75-.44-1.44-1-1.46a1.43,1.43,0,0,0-1.2,1.3c0,.83.48,1.52,1.09,1.51A1.25,1.25,0,0,0,420.39,318.29Zm-1.87,5.43c1.31.2,1.73.15,2.18-.23s.56-1.2,0-1.47a1.7,1.7,0,0,0-1.71.22A1,1,0,0,0,418.52,323.72Z" transform="translate(-343.99 -151.19)"/><path d="M385.86,209.66c-.2.63-.72.62-1.22.63a69.55,69.55,0,0,0-13.09,1.64c-.45.09-.88.31-1.33.41a6.09,6.09,0,0,1-1.08,0C372.24,210.73,383.32,209,385.86,209.66Z" transform="translate(-343.99 -151.19)"/><path d="M429,283.67c-.08.25-.13.51-.23.75-.38.95-.7,1.92-1.17,2.83a14.79,14.79,0,0,1-1.58,2.42c-1.47,1.86-3,3.67-4.5,5.51a21.39,21.39,0,0,1-6.52,5.37,1.79,1.79,0,0,1-1.14.24c.75-.51,1.5-1,2.24-1.53s1.61-1.1,2.36-1.73a23.89,23.89,0,0,0,2.13-2c.67-.7,1.29-1.47,1.9-2.22s1.21-1.54,1.81-2.31,1.23-1.51,1.79-2.32a27.39,27.39,0,0,0,1.5-2.49c.46-.84.84-1.7,1.26-2.56Z" transform="translate(-343.99 -151.19)"/><path d="M410.28,275.5a2.61,2.61,0,0,1-2.76,2.67c-1.76-.1-2.5-.91-2.58-2.64a2.65,2.65,0,0,1,2.84-2.89A2.51,2.51,0,0,1,410.28,275.5Zm-.87.21a10.79,10.79,0,0,0-.12-1.15,2,2,0,0,0-1.72-1.56,1.59,1.59,0,0,0-1.54,1.52,6.24,6.24,0,0,0,.34,2.41,1.2,1.2,0,0,0,1.35.77,1.43,1.43,0,0,0,1.33-.84A9.46,9.46,0,0,0,409.41,275.71Z" transform="translate(-343.99 -151.19)"/><path d="M411.58,347.17c-3.28.54-4,.13-4.34-2.38-.23-1.58.8-2.36,3.62-2.61.07-.71.15-1.46.24-2.3.46.62.46.62.46,2.34,0,.79,0,1.58,0,2.38Zm-.34-2.27-.18-.06c0-.23,0-.46,0-.69-.09-1.09-.4-1.36-1.48-1.31A1.72,1.72,0,0,0,408,344a2.41,2.41,0,0,0,.52,2.43c.73.55,1.7.68,2.14.11A5.29,5.29,0,0,0,411.24,344.9Z" transform="translate(-343.99 -151.19)"/><path d="M368.87,323.78c-.52,0-.79,0-1.06,0-2.59-.06-3.8-1.74-3.08-4.26a1.78,1.78,0,0,1,1.67-1.24c.5,0,1,0,1.59,0l.11-2.32h.31C368.89,318.49,368.53,321.08,368.87,323.78Zm-.59-2.78c0-.15,0-.56,0-1a1.21,1.21,0,0,0-1-1.15,1.48,1.48,0,0,0-1.61.55,2.71,2.71,0,0,0,.44,3.42,1.62,1.62,0,0,0,1.69.28c.57-.24.59-.77.57-1.29C368.27,321.64,368.28,321.46,368.28,321Z" transform="translate(-343.99 -151.19)"/><path d="M416,332.71v2.43c-1.14.41-2.32,1-3.44-.06a2.8,2.8,0,0,1-.61-3c.45-1.64,1.83-1.92,3.42-2l.23-2.48.36,0a38.28,38.28,0,0,1,0,4.43c-.39-.55-.57-1-.92-1.25a1.68,1.68,0,0,0-1.19,0,2.2,2.2,0,0,0-1.31,2.6c.28,1.05.7,1.46,1.53,1.54a1.32,1.32,0,0,0,1.57-1.38c0-.3.07-.6.1-.89Z" transform="translate(-343.99 -151.19)"/><path d="M348.61,237.12l13.91,1c.11.61-.25.67-.66.65-1.89-.09-3.79-.12-5.67-.29-2.3-.21-4.59-.53-6.88-.82a2.83,2.83,0,0,1-.77-.31Z" transform="translate(-343.99 -151.19)"/><path d="M427.3,340.65c1.08.1,1.76-1.09,2.79-.43l.3-.15c.41-.24.87-.73,1.24-.67.64.11.61.81.64,1.38a13.42,13.42,0,0,1,0,3c-.06-.61-.09-1.23-.17-1.84s-.21-1.23-.33-1.86a1.57,1.57,0,0,0-1.43,1.78c0,.78.14,1.56.2,2.35a1.13,1.13,0,0,1-.27.81,4.09,4.09,0,0,1-.21-.65c-.09-.92-.12-1.85-.26-2.77a1.07,1.07,0,0,0-.52-.71.8.8,0,0,0-.7.27,3.49,3.49,0,0,0-.67,1.45,15,15,0,0,0,.12,2.21,8,8,0,0,1-.09,1l-.36,0C427.47,344.09,427.39,342.43,427.3,340.65Z" transform="translate(-343.99 -151.19)"/><path d="M416.78,272.05c-.76,1.37-1.18,2.65-.44,4.11a1,1,0,0,0,1.37.59,1.45,1.45,0,0,0,.71-.75,3.34,3.34,0,0,0-.79-3.93c.82-.15,1-.07,1.41.55a3.79,3.79,0,0,1-.32,4.06,1.78,1.78,0,0,1-2,.6,1.84,1.84,0,0,1-1.5-1.43,3.78,3.78,0,0,1,.74-3.26A2.71,2.71,0,0,1,416.78,272.05Z" transform="translate(-343.99 -151.19)"/><path d="M366.74,335.81c-.18.36-.2.48-.27.52a5.44,5.44,0,0,1-3.39-.24,1.52,1.52,0,0,1,.3-2.38,4,4,0,0,1,1.19-.37c.44-.08.86-.16.82-.72s-.24-.94-.8-1a6.06,6.06,0,0,0-1.18.12c-.16,0-.33.08-.74.18a1.49,1.49,0,0,1,1.61-1,1.3,1.3,0,0,1,1.48,1,22.63,22.63,0,0,1,.2,2.47C366,335,365.78,335.7,366.74,335.81Zm-1.3-1a.86.86,0,0,0-.95-.89,1.31,1.31,0,0,0-1.28,1.05.94.94,0,0,0,1,1A1.22,1.22,0,0,0,365.44,334.78Z" transform="translate(-343.99 -151.19)"/><path class="cls-2" d="M414.9,198.66a2.4,2.4,0,0,0-1.86.4.59.59,0,0,1-.53,0,2,2,0,0,0-1.89-.42,5.78,5.78,0,0,1-2-.18,6.48,6.48,0,0,1,0,1.94c-.17.51-.71.89-1.11,1.35l-1.4-2.06a1.59,1.59,0,0,1,1.67-1.4c2.36,0,4.71.08,7.07.13C414.79,198.39,414.81,198.47,414.9,198.66Z" transform="translate(-343.99 -151.19)"/><path d="M409.33,295.33l1.21-.94a2.91,2.91,0,0,0,.34,1c.2.22.59.26,1.17.49l-.91.85-1.13-.62-1.12.48c-.12-.09-.3-.16-.32-.26-.1-.38-.32-.86-.19-1.17a29,29,0,0,1,3.27-6.24c.1-.13.31-.19.62-.36a3.75,3.75,0,0,1-.89,2A9.2,9.2,0,0,0,409.33,295.33Z" transform="translate(-343.99 -151.19)"/><path d="M404.41,277a1,1,0,0,1-.52,1.18,3.68,3.68,0,0,1-3.35-.26,2.24,2.24,0,0,1-1.1-2.25,3,3,0,0,1,2.69-2.74,9.28,9.28,0,0,1,1.39,0c.69,0,.72.44.58,1-1.41-.78-2.43-.74-3.1.11a2.73,2.73,0,0,0,.12,3.34C402,278.26,402.89,278.16,404.41,277Z" transform="translate(-343.99 -151.19)"/><path d="M397.19,277.52c0,.68-.06,1.2-.8,1.21l-.7,0h-2.21a8.06,8.06,0,0,0-.18-5.21l1.65-.16c-.12.74-.23,1.4-.34,2l1.49.53c-.09,1-.9.67-1.36,1.06a1,1,0,0,0,.63,1.17A1.49,1.49,0,0,0,397.19,277.52Z" transform="translate(-343.99 -151.19)"/><path d="M353.75,222.48c1.12-3.33,8.73-8.64,12.14-8.84C361.24,216.09,356.82,218.37,353.75,222.48Z" transform="translate(-343.99 -151.19)"/><path d="M411.82,274.82l-1.09-.36c.1-.6.2-1.21.31-1.85l1.66-.22c-.09,1.69-.17,3.34-.26,5.11a3.54,3.54,0,0,0-.69.25c-.49.26-.77,0-1.06-.34a.83.83,0,0,1,0-1.13C411,275.83,411.34,275.42,411.82,274.82Z" transform="translate(-343.99 -151.19)"/><path d="M364.27,323.06c0,.08-.08.18-.15.22a6.08,6.08,0,0,1-3.28-.11,1.1,1.1,0,0,1-.53-1.42,2.24,2.24,0,0,1,1.55-1.48c.35-.11.71-.17,1.05-.25,0-1.46-.1-1.54-2.42-1.31.29-.84.93-.84,1.55-.8a1.6,1.6,0,0,1,1.53,1.38,13.72,13.72,0,0,1,.09,1.81C363.67,322.31,363.67,322.31,364.27,323.06Zm-1.15-2.23a2.55,2.55,0,0,0-1.91.41.85.85,0,0,0,0,1.4,1.71,1.71,0,0,0,1.15.18.89.89,0,0,0,.8-1C363.09,321.55,363.12,321.24,363.12,320.83Z" transform="translate(-343.99 -151.19)"/><path d="M378.26,278a7.12,7.12,0,0,0,.62.72,1,1,0,0,0,1.48,0c.35-.4.26-.84-.32-1.29-.37-.28-.8-.49-1.16-.78a1.53,1.53,0,0,1-.66-1.58c.2-.73.75-1,1.48-1,1.31-.11,1.34-.13,1.4.93a3.61,3.61,0,0,0-1-.38,1.35,1.35,0,0,0-.95.29c-.34.35,0,.7.27.94s.77.51,1.14.79c.9.68,1.1,1.54.55,2.27a2,2,0,0,1-2.64.37c-.27-.25-.32-.75-.47-1.13Z" transform="translate(-343.99 -151.19)"/><path d="M382.37,332.3a1.59,1.59,0,0,1,3,1.08c0,.28,0,.56,0,.84,0,.7,0,1.37,1,1.72-.42.26-.62.46-.86.5-.62.13-1.26.18-1.89.28a1.27,1.27,0,0,1-1.17-2.19,7.19,7.19,0,0,1,1.69-.89c.46-.17.73-.39.66-.89a.84.84,0,0,0-1-.79A9.39,9.39,0,0,0,382.37,332.3Zm2.25,1.76c-1.14.16-1.47.26-1.78.78a1.22,1.22,0,0,0-.13,1,1.17,1.17,0,0,0,.94.36C384.69,336.08,385,335.44,384.62,334.06Z" transform="translate(-343.99 -151.19)"/><path d="M390,330.79l.14-2.43h.35c.14,1.51.3,3,.4,4.53a3.22,3.22,0,0,1-.22,1h-.28c-.11-.66-.21-1.32-.32-2a1.8,1.8,0,0,0-2.53.27c-.76.86-.6,2.09.46,3.62-1.08.07-1.36-.28-1.49-1.83C386.31,332,387.22,331.1,390,330.79Z" transform="translate(-343.99 -151.19)"/><path d="M383.11,344.46a3.4,3.4,0,0,1,3-1.09l.19-2.52a20.78,20.78,0,0,1,.58,7.22c-2.33.36-2.58.31-3.65-.82.63.22,1,.39,1.44.5,1.29.36,2.13-.48,1.82-1.8a7.68,7.68,0,0,1-.11-.82,1.14,1.14,0,0,0-1.95-.87C384,344.54,383.67,344.88,383.11,344.46Z" transform="translate(-343.99 -151.19)"/><path d="M379.09,345.58l-3.53.31c.45,1.74.84,1.89,3.49,1.51a2.47,2.47,0,0,1-3.38.21,2.78,2.78,0,0,1-.33-3.42,2.54,2.54,0,0,1,2.45-.57C378.7,343.93,379,344.3,379.09,345.58Zm-3.62-.16,3-.36C377.37,343.58,376.47,343.65,375.47,345.42Z" transform="translate(-343.99 -151.19)"/><path d="M369.35,348.58c-.54,0-.48-.43-.49-.8a20.49,20.49,0,0,0-.12-2.36,1.39,1.39,0,0,0-2.76.14c0,.6,0,1.21,0,1.81,0,.4,0,.8,0,1.25a2.25,2.25,0,0,1-.4-.14.33.33,0,0,1-.15-.22c-.05-1.51-.08-3-.12-4.54.66-.07,1.32-.16,2-.22a2,2,0,0,1,2,1.57c.12,1.1.13,2.21.17,3.32C369.55,348.45,369.43,348.51,369.35,348.58Z" transform="translate(-343.99 -151.19)"/><path d="M378.71,336.78c0-.73-.06-1.46-.12-2.18a7.74,7.74,0,0,0-.17-1.09c-.24-1-.59-1.27-1.38-1.2a1.43,1.43,0,0,0-1.46,1.52c0,.83,0,1.66,0,2.49a.72.72,0,0,1-.23.59c-.13-.23-.35-.46-.36-.69,0-1.44,0-2.87,0-4.3.56-.05,1.13-.07,1.68-.15a1.91,1.91,0,0,1,2.41,1.82A4.35,4.35,0,0,1,378.71,336.78Z" transform="translate(-343.99 -151.19)"/><path d="M358.43,303.2c-2.51-1.09-7.11-6.41-7.5-8.76,2,3.32,4.86,5.83,7.56,8.51C358.51,303,358.47,303,358.43,303.2Z" transform="translate(-343.99 -151.19)"/><path d="M422.34,318.28a1.61,1.61,0,0,0,.73,1.9c.85.52,1.34-.27,2.1-.53a1.43,1.43,0,0,1-1.41,1.31,1.45,1.45,0,0,1-1.61-.84,5.18,5.18,0,0,1-.32-3.53,1.74,1.74,0,0,1,1.54-1.21,1.49,1.49,0,0,1,1.6,1.08,6.58,6.58,0,0,1,.2,1.12Zm2.29-1c-.24-.88-.55-1.39-1.35-1.29s-1,.59-1.08,1.7Z" transform="translate(-343.99 -151.19)"/><path d="M413.53,322.61a4.86,4.86,0,0,1-.12-.84c0-1.11,0-2.22,0-3.33,0-.58.15-1,.83-1a3,3,0,0,0,.78-.27,1.2,1.2,0,0,1,1.73.59,1.26,1.26,0,0,1,.21.51c.09,1.14.17,2.29.23,3.44,0,.1-.12.21-.31.52-.15-1.14-.27-2.07-.4-3s-.47-1.52-1.07-1.52a1.87,1.87,0,0,0-1.53,1.71c0,.84,0,1.67,0,2.51a5.51,5.51,0,0,1-.09.71Z" transform="translate(-343.99 -151.19)"/><path d="M392.77,335.13c-.19-.06-.49-.08-.55-.21a4.83,4.83,0,0,1-.49-1.55,2.63,2.63,0,0,1,1.91-2.72,2.71,2.71,0,0,1,3,1.49,4.94,4.94,0,0,1,.05,1.92c0,.29-.35.55-.54.83l-.26-.12c.05-.23.08-.47.15-.7a2.17,2.17,0,0,0-.75-2.58,1.92,1.92,0,0,0-2.43.28,2.17,2.17,0,0,0-.28,2.69,3.11,3.11,0,0,0,.32.42Z" transform="translate(-343.99 -151.19)"/><path d="M379.63,285.68v-1.4l-1,1.21-1-1.26v1.59c-.29-.2-.57-.31-.57-.41,0-1,.07-1.9.12-2.9,1,.1.75,1.24,1.43,1.55.93.06.59-1.49,1.67-1.34l.21,2.87Z" transform="translate(-343.99 -151.19)"/><path d="M349.24,243.2c.18-.14.35-.4.54-.42a3.88,3.88,0,0,1,2.85.88,1.74,1.74,0,0,1,.44.68,8.72,8.72,0,0,1-.08,3.39c-.72-2-1.08-4.16-3.69-4.23Z" transform="translate(-343.99 -151.19)"/><path d="M390.47,273.76l1.78-.24c-.77,1.86-.24,3.59.11,5.42h-1.83A6.78,6.78,0,0,0,390.47,273.76Z" transform="translate(-343.99 -151.19)"/><path d="M362.93,278.18h-1a10.71,10.71,0,0,0,.51-5l-1.61.22c0-.31-.09-.74.47-.7,1.25.07,2.49.22,3.83.34l-.08.62-1.74-.31Z" transform="translate(-343.99 -151.19)"/><path d="M423.58,330.32c-.42-.44-.74-1-1.47-.69a2.06,2.06,0,0,0-1.36,2.2l-.31-.72c-.23-.6-.53-1.11-1.29-1a1.76,1.76,0,0,0-1.41,1.38,7.89,7.89,0,0,1-.24,1.47l-.32-2.65c.54-.22.95-.39,1.36-.54.22-.09.48-.27.64-.2a4.25,4.25,0,0,0,2.93-.29C423,329,423.36,329.25,423.58,330.32Z" transform="translate(-343.99 -151.19)"/><path d="M426.31,341.11V346c-.37.1-.8.18-1.22.33-1.28.47-1.77.21-2.08-1.09a3,3,0,0,1,.21-2.36c0,.66.06,1.32.14,2a1.07,1.07,0,0,0,.88,1.11,1.26,1.26,0,0,0,1.4-.69,4.74,4.74,0,0,0,.33-1.58c0-.87,0-1.75,0-2.62Z" transform="translate(-343.99 -151.19)"/><path d="M359.68,298.66a23.88,23.88,0,0,1-8.51-9.51A44.82,44.82,0,0,0,359.68,298.66Z" transform="translate(-343.99 -151.19)"/><path d="M367.48,277.51a2.92,2.92,0,0,1,.52.4.92.92,0,0,0,1.41.36c.43-.3.34-.95-.19-1.58a5.92,5.92,0,0,1-.79-1,2.69,2.69,0,0,1-.3-1.29,1,1,0,0,1,1-1c.58,0,1.21-.09,1.46,1-.39-.25-.57-.45-.79-.49s-.68-.1-.84.05a.9.9,0,0,0-.2.84,4.14,4.14,0,0,0,.84,1.09,1.94,1.94,0,0,1,.68,1.59c-.09.87-.45,1.37-1.18,1.48S367.91,278.74,367.48,277.51Z" transform="translate(-343.99 -151.19)"/><path d="M429.67,330.13a12.89,12.89,0,0,1-.63,2.35c-.52,1.11-1.6,1.1-2.29.08a3.94,3.94,0,0,1,.62-4.38,1.2,1.2,0,0,1,2.11.67,5.79,5.79,0,0,1,0,1.25Zm-.29.42a11.32,11.32,0,0,0-.33-1.47c-.32-.86-.88-1-1.56-.32a2.94,2.94,0,0,0-.39,3.33,1,1,0,0,0,1.72,0A8,8,0,0,0,429.38,330.55Z" transform="translate(-343.99 -151.19)"/><path d="M419.17,294a3.33,3.33,0,0,1-4.49,1.12,6.25,6.25,0,0,0-1.15-.44c0,.6-.08,1-.73.75l1.05-2.38a16.43,16.43,0,0,1,1.07,1.27,1.24,1.24,0,0,0,1.54.58C417.31,294.6,418.16,294.31,419.17,294Z" transform="translate(-343.99 -151.19)"/><path d="M352.38,345.31c-.16-.18-.47-.37-.47-.56a18.83,18.83,0,0,1,.14-4c.38-1.79,1.79-2.11,3.09-.85a5.9,5.9,0,0,1,1.54,3.09,25,25,0,0,0-2-2.7c-.82-.82-1.74-.6-2.24.46a4.2,4.2,0,0,0-.45,1.85,21.39,21.39,0,0,0,.4,2.73Z" transform="translate(-343.99 -151.19)"/><path d="M379.52,339.1c1-.51,1-1.37,1-2.28-.07-1.33-.14-2.67-.17-4a4.84,4.84,0,0,1,.15-1h.28c.08.6.2,1.2.22,1.81.05,1.47.11,3,.06,4.43C381,339,380.58,339.23,379.52,339.1Z" transform="translate(-343.99 -151.19)"/><path d="M408.37,212.88c1.54.05,6.21,2.33,7.51,3.71a6,6,0,0,1-2.56-1c-.87-.42-1.69-.93-2.57-1.35s-1.65-.7-2.48-1Z" transform="translate(-343.99 -151.19)"/><path d="M374.25,270.56a26,26,0,0,1-3.76-.31c-1.28-.29-2.7.19-3.94-.71a25.66,25.66,0,0,1,7.71.71Z" transform="translate(-343.99 -151.19)"/><path d="M420.22,236.7c-.25.14-.48.39-.74.42a33,33,0,0,1-6.56.52c.62-.59.62-.6,3.68-.78,1.2-.07,2.41-.11,3.62-.16Z" transform="translate(-343.99 -151.19)"/><path d="M361.4,336.06c0-.42-.07-.85-.09-1.28a20.36,20.36,0,0,0-.14-2.07c-.23-1.29-.86-1.6-2.07-1.09l-.81.35c.21-.65.39-1.14.95-1.13a4.2,4.2,0,0,1,1.8.36,1.58,1.58,0,0,1,.68,1.14c.09,1.23,0,2.47,0,3.71Z" transform="translate(-343.99 -151.19)"/><path d="M356.53,315.07c-2,1.7-3,3-.83,7.25-.4-.28-.65-.38-.77-.56a5.91,5.91,0,0,1-.74-4.95,4.55,4.55,0,0,1,1.32-1.72C355.65,315,356.05,315.07,356.53,315.07Z" transform="translate(-343.99 -151.19)"/><path d="M365.8,273.21l1.22.1a10.47,10.47,0,0,0-.3,5.36l-1.21-.23A12.76,12.76,0,0,0,365.8,273.21Z" transform="translate(-343.99 -151.19)"/><path d="M396.49,282l1,0c.62,0,1,.2,1,.86s.07,1.25.12,2l-2.07.25Zm1.1,1.34c-.25.34-.49.53-.46.64a3,3,0,0,0,.42.73c.14-.15.42-.3.41-.44A3.56,3.56,0,0,0,397.59,283.29Zm-.49-.27c.59-.28.59-.28.21-.87Z" transform="translate(-343.99 -151.19)"/><path d="M420.22,236.7c2.7-.71,5.42-.88,6.79-.25-.68.12-1.36.27-2.05.33-1.1.1-2.22.08-3.31.23a2.17,2.17,0,0,1-1.43-.31Z" transform="translate(-343.99 -151.19)"/><path d="M386.21,282.4c.63,0,1.08,0,1.52.08.9.09,1.24.38,1.33,1.11s-.17,1.17-1.14,1.52c.33-.59.83-1.15.38-1.86a.92.92,0,0,0-1.33-.45,3.33,3.33,0,0,0,.22,2.59h-1Z" transform="translate(-343.99 -151.19)"/><path class="cls-3" d="M378.71,406.83l-2.62-.95c.13-.13.25-.34.42-.4a12.68,12.68,0,0,1,1.32-.33c0,.11,0,.31.08.49.11.44.39.5.71.27s.25-.41.43-.53c.39-.25.81-.28,1.07.18a.58.58,0,0,1-.35.89C379.39,406.61,379,406.73,378.71,406.83Z" transform="translate(-343.99 -151.19)"/><path d="M392.94,284.81c-.7.61-1.49.28-2.26.41V282.3a2.19,2.19,0,0,1,1.89.2c-.43.11-1.11-.35-1.2.4,0,.24.43.54.68.84-.11.14-.52.45-.49.68C391.72,285.35,392.53,284.3,392.94,284.81Z" transform="translate(-343.99 -151.19)"/><path class="cls-3" d="M385.27,409.94a5.17,5.17,0,0,1-1,.26,3.4,3.4,0,0,0-2.17.94,6.2,6.2,0,0,1-1.84.71l0-1c1,.38,1.48-.51,2.17-.9.24-.14.6-.45.67-.39.66.5,1.62-.48,2.15.45Z" transform="translate(-343.99 -151.19)"/><path d="M430,246.72c-1.18.17-2.15-.56-3.23-.27-.09,0-.38-.29-.38-.46a.66.66,0,0,1,.38-.48,10.77,10.77,0,0,1,1.6-.31C428.9,245.13,429.53,245.73,430,246.72Z" transform="translate(-343.99 -151.19)"/><path d="M369,288.55a6.28,6.28,0,0,0-3.29,2.37c-.69,1.08-1.25,2.24-1.9,3.42C363.74,292.18,367,287.89,369,288.55Z" transform="translate(-343.99 -151.19)"/><path d="M383.17,284.72l-.9,1-.3-.2,1.19-2.88c.66.28.58.87.79,1.29s.43.91.63,1.37C383.6,286.17,383.88,284.67,383.17,284.72Z" transform="translate(-343.99 -151.19)"/><path d="M400,281.85c.66-.08.66-.08,1.26.59l.83-.92c.07.27.15.4.12.5-.26.86-.54,1.72-.89,2.78l-.48.06a8.6,8.6,0,0,0-.14-1.67A6.61,6.61,0,0,0,400,281.85Z" transform="translate(-343.99 -151.19)"/><path d="M373.14,276.92c-.89-.52-.45-1.21-.45-1.77,0-.91-.42-1.19-1.28-.81a1.83,1.83,0,0,0-.24.13.27.27,0,0,1-.12,0c0-.08-.11-.17-.09-.23a5.15,5.15,0,0,1,.26-.55l2.92.3C373,274.82,373.6,275.93,373.14,276.92Z" transform="translate(-343.99 -151.19)"/><path d="M356.24,332.1l-.25-1.29c.42-.06,1.46,3.55,1.31,4.41-.69-.81-.25-2.23-1.49-2.64a11.06,11.06,0,0,0-1.35-.27l.16-.77Z" transform="translate(-343.99 -151.19)"/><path d="M350,268l5.63.6c-1.23.8-2.35.4-3.35.3C351.6,268.8,350.6,269,350,268Z" transform="translate(-343.99 -151.19)"/><path d="M391.5,344.76l-.24-1.42c.3.27.55.4.67.61.59,1,.39,1.39-.84,1.4a4.65,4.65,0,0,0-3,.78l.06-1Z" transform="translate(-343.99 -151.19)"/><path d="M421,261.75l.25-2.23a6.2,6.2,0,0,0,1.26,1.32c.4.23,1.09-.25,1.46.49-.54.69-1.28.28-1.92.49l-.47-1.47-.16,1.51Z" transform="translate(-343.99 -151.19)"/><path d="M369.2,293.59c2.21-1.36,2.95-2.5,1.52-4.83a1.9,1.9,0,0,1,1.17,2.24A2.68,2.68,0,0,1,369.2,293.59Z" transform="translate(-343.99 -151.19)"/><path d="M423.58,215.85l-1.92-1.53.19-.35c.65.3,1.15-1.08,1.81-.07S424.33,215.2,423.58,215.85Z" transform="translate(-343.99 -151.19)"/><path class="cls-3" d="M370.93,405.37l.06.91-1.82.25-.23.73-2.55.56-.08-.29a9.06,9.06,0,0,1,3.26-1.45c.48-.07,1.13-.06,1.37-.71Z" transform="translate(-343.99 -151.19)"/><path class="cls-3" d="M397.48,420.43l-1.28-1.56c.25-.07.55-.24.69-.16.93.58,2.2.66,2.81,1.77-.87.57-.95-.29-1.26-.65l-1,.59Z" transform="translate(-343.99 -151.19)"/><path d="M409.07,208.2a7.14,7.14,0,0,1,4.16,1.87A6.1,6.1,0,0,1,409.07,208.2Z" transform="translate(-343.99 -151.19)"/><path d="M349,232.36a2.4,2.4,0,0,1,0-.81c.65-1.52,1.33-3,2-4.52l.28.1a32.58,32.58,0,0,1-1.29,3.55c-.27.57-.27,1.4-1.07,1.66Z" transform="translate(-343.99 -151.19)"/><path d="M401.43,237.71l5-.27c-.27.32-.43.68-.62.69a32.72,32.72,0,0,1-3.43.07c-.32,0-.63-.32-.95-.5Z" transform="translate(-343.99 -151.19)"/><path d="M388.4,346.39c1,1.7,2.31,1.5,3.75.67a2.08,2.08,0,0,1-2.6,1.15C388.72,348,388.35,347.49,388.4,346.39Z" transform="translate(-343.99 -151.19)"/><path d="M421.38,346.85a26.46,26.46,0,0,1-.19-4.85C421.73,342.79,421.86,345.31,421.38,346.85Z" transform="translate(-343.99 -151.19)"/><path d="M425.47,333.68a9.41,9.41,0,0,1-.13-4.81A14.38,14.38,0,0,1,425.47,333.68Z" transform="translate(-343.99 -151.19)"/><path d="M352.82,262.43l2.54-.88c.38.59.14,1-.44,1.36C354.12,263.37,353.53,263.26,352.82,262.43Z" transform="translate(-343.99 -151.19)"/><path class="cls-3" d="M381.83,397.1l.95,1.14-2.4.47-.34-.77Z" transform="translate(-343.99 -151.19)"/><path d="M422.55,222.57l3,5.2-.31.18-3.07-5.18Z" transform="translate(-343.99 -151.19)"/><path d="M352.35,345.35c.49.46.9,1.1,1.47,1.35a7,7,0,0,0,2.26.05c-.8.69-1.44,1-2.16.75a2,2,0,0,1-1.54-2.18Z" transform="translate(-343.99 -151.19)"/><path d="M366,292.27l.19.82,1.36.25-2.66,1.39.9-2.42Z" transform="translate(-343.99 -151.19)"/><path d="M418.45,218.51a7.65,7.65,0,0,1,3.09,3.21A17.72,17.72,0,0,1,418.45,218.51Z" transform="translate(-343.99 -151.19)"/><path d="M361.49,322.66c-.78.89-1.26,1-2.76.52l2.66-.83Z" transform="translate(-343.99 -151.19)"/><path d="M423.84,218.52l1.6,3.26-.21.11c-.51-.81-1-1.66-1.55-2.44-.33-.44,0-.64.16-.93Z" transform="translate(-343.99 -151.19)"/><path class="cls-3" d="M377.58,403.54l2.25.68c-.69.82-.67.8-1.43,0C378.15,404,377.57,404.1,377.58,403.54Z" transform="translate(-343.99 -151.19)"/><path d="M421.16,216.43c.47-.41.76-.07,1,.24.55.62,1.09,1.24,1.64,1.85h0c-.22,0-.55.15-.64.06-.7-.7-1.35-1.45-2-2.18Z" transform="translate(-343.99 -151.19)"/><path class="cls-3" d="M399.14,412.05c-.05-.71.41-.91.92-1a2.17,2.17,0,0,1,.8.19c-.17.22-.3.55-.53.63A4.56,4.56,0,0,1,399.14,412.05Z" transform="translate(-343.99 -151.19)"/><path d="M354.61,330.45l.36-2.74c.52.55.48.53.18,1.26a10.56,10.56,0,0,0-.38,1.57Z" transform="translate(-343.99 -151.19)"/><path class="cls-3" d="M397.47,420.42l1,1.87-2.09-1,1.06-.9Z" transform="translate(-343.99 -151.19)"/><path class="cls-3" d="M385.3,410c.67-.52,1.35-1.06,2.37-.37a2.61,2.61,0,0,1-2.4.34Z" transform="translate(-343.99 -151.19)"/><path class="cls-3" d="M373.37,403.14h2.47v.21l-1.39-.09-.84,1.26Z" transform="translate(-343.99 -151.19)"/><path d="M400.74,340.25l-2.78.34c1.12-1,1.87-1,2.77-.34Z" transform="translate(-343.99 -151.19)"/><path d="M411.07,321.07c-.76.84,0,1.51.53,2.47-.91-.21-1.28-.54-1.32-1.11s0-1.23.83-1.33Z" transform="translate(-343.99 -151.19)"/><path d="M375.82,273.88c1.09-.15,1.34.25,1.37.72s-.28,1-1.32,1.17C376.93,275.07,376.63,274.51,375.82,273.88Z" transform="translate(-343.99 -151.19)"/><path d="M390.39,343.13l-1.91,1.26C388.66,343.36,389.14,343,390.39,343.13Z" transform="translate(-343.99 -151.19)"/><path d="M421.19,216.4l-1.58-1.24c1.46-.1,1.48-.09,1.55,1.27Z" transform="translate(-343.99 -151.19)"/><path class="cls-3" d="M386.7,399.2l2-.16C387.55,399.8,387.55,399.8,386.7,399.2Z" transform="translate(-343.99 -151.19)"/><path d="M359.61,316.19c-.73.1-1.06-.24-1.47-.81A1.1,1.1,0,0,1,359.61,316.19Z" transform="translate(-343.99 -151.19)"/><path d="M419.31,262l.94-.69c.36,1.09-.2,1-.69,1Z" transform="translate(-343.99 -151.19)"/><path class="cls-3" d="M360.36,401l.47-.82.59.73-.87.33Z" transform="translate(-343.99 -151.19)"/><path d="M400.73,340.25c.91-.12.91-.12,1.28.72l-1.26-.73Z" transform="translate(-343.99 -151.19)"/><path class="cls-3" d="M364,391.25c-.39.82-.82,0-1.24.09.24-.5.64-.38,1-.33Z" transform="translate(-343.99 -151.19)"/><path d="M378.21,317.4v-1.31C378.78,316.69,378.81,317,378.21,317.4Z" transform="translate(-343.99 -151.19)"/><path d="M375.2,275l-.79-.95.87-.13Z" transform="translate(-343.99 -151.19)"/><path d="M368.43,238.54l-1.11-.06v-.23l1.11.06Z" transform="translate(-343.99 -151.19)"/><path d="M380.25,329.19c.76.27.65.55.11,1.06Z" transform="translate(-343.99 -151.19)"/><path d="M425.24,326v.77l-.26,0-.11-.76Z" transform="translate(-343.99 -151.19)"/><path d="M370.36,238.76l-1.09-.11,0-.22a1.41,1.41,0,0,1,.52-.1C369.92,238.36,370.05,238.53,370.36,238.76Z" transform="translate(-343.99 -151.19)"/><path d="M350.35,293.66l-.3-.71.11-.08.45.67Z" transform="translate(-343.99 -151.19)"/><path d="M349,232.34v1c-.26-.51-.26-.51,0-1Z" transform="translate(-343.99 -151.19)"/><path class="cls-3" d="M415.12,368.64l.55,2-2.48-1.77v-2l.29,0-.22.68Z" transform="translate(-343.99 -151.19)"/><path class="cls-3" d="M386.28,355.49a11.63,11.63,0,0,1-2.16,0c-.74-.15-.87-.76-.39-1.66l.31.67.93-1.54a1.05,1.05,0,0,1-.26,1.42Z" transform="translate(-343.99 -151.19)"/><path class="cls-3" d="M418.78,353.86c-1.13,1-1.13,1-2.11.41,0-.59,0-1.3.67-1.48C418.16,352.56,418.16,353.63,418.78,353.86Z" transform="translate(-343.99 -151.19)"/><path class="cls-3" d="M366.71,359.23c-.17-.51-1.29-.41-.83-1.36l1.31-.16c.34.66-.15,1.07-.48,1.52Z" transform="translate(-343.99 -151.19)"/><path class="cls-3" d="M393.19,361l-1.13-.72c.14-.71.56-.69,1-.54s.62.59.37,1.08A1.12,1.12,0,0,1,393.19,361Z" transform="translate(-343.99 -151.19)"/><path class="cls-3" d="M389.76,359.27l1.55.4-.07.86c-.09,0-.19.08-.25.06C390.22,360.27,390.22,360.26,389.76,359.27Z" transform="translate(-343.99 -151.19)"/><path class="cls-3" d="M366.71,359.23l-2,.81c.33-1.32,1.23-.82,2-.81Z" transform="translate(-343.99 -151.19)"/><path class="cls-3" d="M421,368.49l-.53-.89.89-.54.16.16Z" transform="translate(-343.99 -151.19)"/><path class="cls-3" d="M410.85,371c-1.33-.61.6-1.08-.31-1.56C411.71,369.92,410.74,370.39,410.85,371Z" transform="translate(-343.99 -151.19)"/><path class="cls-3" d="M384.22,353.27l-1.41-.46.08-.27,1.35.34Z" transform="translate(-343.99 -151.19)"/><path class="cls-3" d="M426.51,351.46c.69.23.86.54.14,1Z" transform="translate(-343.99 -151.19)"/><path class="cls-3" d="M390.94,358.39c-.4.36-.83.47-1.45-.12l1.37-.16Z" transform="translate(-343.99 -151.19)"/><path class="cls-3" d="M422,369.56l-.65-.75c.14-.12.22-.23.25-.22A.8.8,0,0,1,422,369.56Z" transform="translate(-343.99 -151.19)"/><path class="cls-3" d="M393.32,370.14a9,9,0,0,1-1,0c-.06,0-.09-.31-.18-.62l1.22.6Z" transform="translate(-343.99 -151.19)"/><path class="cls-3" d="M417.93,369.07c-.06.2-.11.4-.19.6,0,0-.16,0-.25,0l.07-.66Z" transform="translate(-343.99 -151.19)"/><path class="cls-3" d="M411.25,367.14h-1C410.62,366.54,410.93,367,411.25,367.14Z" transform="translate(-343.99 -151.19)"/><path class="cls-3" d="M395.1,355.3c.15-.19.23-.36.3-.36a1.76,1.76,0,0,1,.46.15c-.07.11-.12.3-.21.32A1.8,1.8,0,0,1,395.1,355.3Z" transform="translate(-343.99 -151.19)"/><path class="cls-3" d="M353.09,369.23l-.63.79C352.41,369.34,352.41,369.34,353.09,369.23Z" transform="translate(-343.99 -151.19)"/><path class="cls-3" d="M410.05,369v-.77h.13l-.07.71Z" transform="translate(-343.99 -151.19)"/><path class="cls-3" d="M431.28,366.79l-.84.08v-.1l.84-.07Z" transform="translate(-343.99 -151.19)"/><path class="cls-3" d="M389.43,206.36c.31-.84.31-.84,1.56-.39-.38.75-1,.29-1.55.38Z" transform="translate(-343.99 -151.19)"/><path class="cls-3" d="M389.44,206.35l-2-.19c1-.66,1.28-.62,2,.19Z" transform="translate(-343.99 -151.19)"/><path class="cls-3" d="M419.89,201.47c-.72-.77-.47-1,.21-1.19Z" transform="translate(-343.99 -151.19)"/><path class="cls-4" d="M388.12,169.36l-.26.06a.22.22,0,0,0,.16,0A.23.23,0,0,0,388.12,169.36Z" transform="translate(-343.99 -151.19)"/><path class="cls-4" d="M391,173.45a1.53,1.53,0,0,0-1.85-.51A1.86,1.86,0,0,0,391,173.45Z" transform="translate(-343.99 -151.19)"/><path class="cls-4" d="M384.49,168.35l-.4.3.47.2Z" transform="translate(-343.99 -151.19)"/><path class="cls-4" d="M366.26,180.54l.47-.33h0a.71.71,0,0,1,.3.15.43.43,0,0,1,.11.12.68.68,0,0,1,.09.17h0l.09.09-.18,0" transform="translate(-343.99 -151.19)"/><path class="cls-2" d="M368.74,181a4.27,4.27,0,0,1-.3.44.8.8,0,0,1-.19.18l-.89-.87Z" transform="translate(-343.99 -151.19)"/><path class="cls-2" d="M372.43,179.48a.15.15,0,0,0,0,.07,2,2,0,0,0,.08.55l-.21-.18-.34-.29-.14-.11.71-.41a1.42,1.42,0,0,0-.07.22A.68.68,0,0,0,372.43,179.48Z" transform="translate(-343.99 -151.19)"/><path class="cls-2" d="M388.6,168.82l-1,.2v.29c.09,0,.19.08.28.11l.26-.06C388.23,169.27,388.35,169.1,388.6,168.82Z" transform="translate(-343.99 -151.19)"/><path class="cls-2" d="M384.43,167.84l-.83.6.49.21.4-.3Z" transform="translate(-343.99 -151.19)"/><path class="cls-2" d="M391,173.45l.14,0c-.88-1-1.35-1.2-2.31-.85a2.94,2.94,0,0,0,.32.37A1.53,1.53,0,0,1,391,173.45Z" transform="translate(-343.99 -151.19)"/><path class="cls-5" d="M357.91,166.91a14.5,14.5,0,0,1-.4-2.66c0-1.71,1.24-2.77,2.49-3.68a39.06,39.06,0,0,1,4.11-2.61,30.21,30.21,0,0,1,3.45-1.5c1.11-.46,2.23-.88,3.34-1.31.34-.13.69-.21,1-.32.55-.18,1.1-.38,1.66-.55.39-.11.79-.17,1.18-.27s1-.25,1.43-.36.7-.12,1.06-.18l1.45-.29c1.55-.27,3.09-.59,4.65-.8,2.2-.3,4.41-.52,6.61-.76a4.23,4.23,0,0,1,.94,0,2.76,2.76,0,0,0,.79.12,17.58,17.58,0,0,1,6,.26,26.79,26.79,0,0,1,4,.83,4.16,4.16,0,0,1,2.49,1.91,4.12,4.12,0,0,0-2.7-2.32,25.55,25.55,0,0,0-4-.82c-.9-.14-1.81-.28-2.72-.37l-1.36-.07a10.57,10.57,0,0,0-1.93.17,3.13,3.13,0,0,1-.79-.11,4.23,4.23,0,0,0-.94,0c-2.2.24-4.41.46-6.61.76-1.52.21-3,.51-4.54.78a64.72,64.72,0,0,0-17.17,6.36c-4.81,2.95-4.06,4.83-4.06,4.83s.29,2.07.68,4.65.9,5,1.34,7.56c.1.47.2.89.3,1.23a3.45,3.45,0,0,0,.28.54,4,4,0,0,1-.3-.94C359.11,173.62,358.5,170.26,357.91,166.91Z" transform="translate(-343.99 -151.19)"/><path class="cls-5" d="M391.33,173.83l-.25,0-.1,0-.17,0h-.05a1.85,1.85,0,0,1-.48,0,1.25,1.25,0,0,1-.26-.07l-.18-.08-.11-.06a2.21,2.21,0,0,1-.6-.55s-.08-.1-.12-.15l.11,0a1.54,1.54,0,0,0,.19.17h0a.72.72,0,0,0,.15.11h0a1.62,1.62,0,0,0,.9.27,2.12,2.12,0,0,0,.6-.05Z" transform="translate(-343.99 -151.19)"/><path class="cls-5" d="M388.12,169.36a.23.23,0,0,1-.1.07.22.22,0,0,1-.16,0h-.06v.28c.15,0,.33.17.44.13s.25-.24.58-.61Z" transform="translate(-343.99 -151.19)"/><path class="cls-5" d="M384.49,168.35l.07.5-.47-.2-.28.2,1,.4c-.06-.41-.09-.65-.13-1Z" transform="translate(-343.99 -151.19)"/><path class="cls-5" d="M376.18,177h0c-.1-.15-.21-.34-.36-.61l.06.05Z" transform="translate(-343.99 -151.19)"/><path class="cls-5" d="M378.66,177.34a3.69,3.69,0,0,0-1.05-.65l.28-.16C378.39,176.81,378.6,177,378.66,177.34Z" transform="translate(-343.99 -151.19)"/><path class="cls-5" d="M378.32,175.76l-.08.05c-.13-.15-.28-.32-.48-.57l.15,0Z" transform="translate(-343.99 -151.19)"/><path class="cls-5" d="M388.13,169.36c.1-.09.22-.26.48-.54l-1,.2a2.62,2.62,0,0,0,0,.28l.27.11h-.05c0,.11,0,.2,0,.3s.33.16.44.12.25-.24.58-.61Zm-3.5-1.11-.14.1c0-.17,0-.32-.07-.51l-.82.6.36.15.13,0-.28.2.44.19.51.22C384.71,168.84,384.68,168.59,384.63,168.25Zm6.35,5.2.14,0c-.62-.71-1-1-1.56-1a1.29,1.29,0,0,0-.33,0h0l-.31.09h0l-.05,0a2.94,2.94,0,0,0,.32.37l-.11,0c0,.05.08.11.12.15a2.21,2.21,0,0,0,.6.55l.11.06.18.08a1.25,1.25,0,0,0,.26.07,1.85,1.85,0,0,0,.48,0h.05l.17,0,.1,0,.25,0Zm16-6.2c-.31-1.14-.44-2.33-.7-3.49-.57-2.62-1.26-5.22-1.75-7.85a4.76,4.76,0,0,0-.36-1.14,4.15,4.15,0,0,0-2.48-1.92,28.09,28.09,0,0,0-4-.82,17.58,17.58,0,0,0-6-.26,3.2,3.2,0,0,1-.79-.11,4.26,4.26,0,0,0-.94,0c-2.21.24-4.41.46-6.61.76-1.56.21-3.1.52-4.65.8l-1.45.29c-.36.07-.72.11-1.07.18s-.94.25-1.41.37-.81.15-1.2.27c-.55.16-1.1.36-1.65.54-.35.11-.7.19-1,.32-1.11.43-2.24.86-3.34,1.31a31.19,31.19,0,0,0-3.45,1.49,43.87,43.87,0,0,0-4.11,2.61c-1.25.92-2.45,2-2.49,3.7a13.71,13.71,0,0,0,.4,2.65c.6,3.36,1.2,6.71,1.78,10.07a4.49,4.49,0,0,0,.29.94,2.94,2.94,0,0,0,1.23,1.07,13.21,13.21,0,0,0,4.81,1.13l.22,0h.16a1.5,1.5,0,0,1,.33.06h0a.71.71,0,0,1,.3.15.43.43,0,0,1,.11.12.68.68,0,0,1,.09.17h0l.09.09.89.87a.8.8,0,0,0,.19-.18,4.27,4.27,0,0,0,.3-.44l.24-.36.22-.33s0,0,0,0,.14-.24.21-.35l.19-.31,1.91-.35.29.25.14.11.34.29.21.18a2,2,0,0,1-.08-.55.15.15,0,0,1,0-.07.77.77,0,0,1,0-.15,1.42,1.42,0,0,1,.07-.22h0a1,1,0,0,1,.13-.22,1.81,1.81,0,0,1,.25-.3l0,0,.23-.27c.4-.56.68-1.15,1.43-1.28.49.89,1-.21,1.56,0-.1-.15-.21-.34-.36-.61l.06.05,2.81.91a3.69,3.69,0,0,0-1.05-.65l.28-.16-.49-.25.84-.47c-.13-.15-.28-.32-.48-.57l.15,0-.36-.45c.71.14,1.16.19,1.6.31.63.16.92-.08.92-.81a5,5,0,0,1,.17-.82l1.64,1.54c.92-.43,1.72-.87,1.55-1.91,1-.36,1.95,0,2.92-.5a2,2,0,0,1,2.36.47l.1.1a6.51,6.51,0,0,0,.54.51c.18.17.38.32.57.48a2.4,2.4,0,0,0,1.08-.06l-.19-.21.17,0,.1,0,4.36.25,1,1.25c.49-.27.94-.55,1.31-.78-.12-.22-.23-.45-.36-.7a12.44,12.44,0,0,1,2.8-1c1.14-.11,1.63-.2,2.2-1.27l.62.48a17.6,17.6,0,0,0,2.13-1.31C406.23,169.9,407.47,169,407,167.25Z" transform="translate(-343.99 -151.19)"/></svg>