<svg id="Layer_1" data-name="Layer 1" xmlns="http://www.w3.org/2000/svg" viewBox="0 0 248.44 269.85"><defs><style>.cls-1{fill:#551c55;}</style></defs><title>flower1</title><path class="cls-1" d="M237.93,134.93c11-8.05,18.24-19.26,20.47-31.93,4.34-24.57-10.64-50.51-34.09-59-12.08-4.4-25.4-3.76-37.88,1.76C185,32.16,178.87,20.3,169,12,149.9-4,120-4,100.83,12,91,20.3,84.88,32.16,83.42,45.72,70.94,40.2,57.63,39.56,45.54,44,22.09,52.49,7.12,78.43,11.45,103c2.23,12.67,9.45,23.88,20.47,31.93-11,8-18.24,19.26-20.47,31.92-4.33,24.58,10.64,50.51,34.09,59.05,12.09,4.39,25.4,3.75,37.88-1.77,1.46,13.57,7.56,25.43,17.41,33.69a54.33,54.33,0,0,0,68.19,0c9.85-8.27,15.95-20.12,17.41-33.69,12.48,5.52,25.8,6.17,37.88,1.77,23.45-8.54,38.43-34.47,34.09-59.05-2.23-12.66-9.45-23.88-20.47-31.92Zm-122,0a19,19,0,1,1,19,19A19,19,0,0,1,115.93,134.93ZM120.12,35c8-6.73,21.59-6.73,29.61,0,10.75,9,9.06,28.45-4.48,52a49,49,0,0,0-20.65,0C111.06,63.46,109.38,44,120.12,35ZM55.8,72.15C69,67.36,85,78.53,98.62,102.05a49.11,49.11,0,0,0-10.34,17.87c-27.18,0-44.85-8.32-47.29-22.13C39.17,87.47,46,75.73,55.8,72.15Zm0,125.56C46,194.12,39.17,182.38,41,172.06,43.43,158.25,61.1,150,88.28,149.93A49,49,0,0,0,98.62,167.8C85,191.32,69,202.5,55.8,197.71Zm93.93,37.13c-8,6.74-21.59,6.74-29.61,0-10.74-9-9.06-28.45,4.48-52a48.58,48.58,0,0,0,20.65,0C158.8,206.39,160.48,225.83,149.73,234.84Zm64.32-37.13c-13.18,4.8-29.18-6.38-42.82-29.91a49,49,0,0,0,10.34-17.87c27.18.06,44.85,8.32,47.29,22.13C230.68,182.38,223.9,194.12,214.05,197.71Zm14.81-99.92c-2.44,13.81-20.11,22.08-47.29,22.13a49.11,49.11,0,0,0-10.34-17.87c13.64-23.52,29.64-34.7,42.82-29.9C223.9,75.73,230.68,87.47,228.86,97.79Z" transform="translate(-10.7 0)"/></svg>