<?xml version='1.0' encoding='iso-8859-1'?>
<svg version="1.1" xmlns="http://www.w3.org/2000/svg" viewBox="0 0 269.852 269.852" xmlns:xlink="http://www.w3.org/1999/xlink" enable-background="new 0 0 269.852 269.852">
  <path d="m237.93,134.927c11.02-8.047 18.239-19.26 20.473-31.924 4.333-24.576-10.641-50.513-34.091-59.048-12.085-4.396-25.405-3.752-37.884,1.768-1.458-13.566-7.559-25.425-17.41-33.691-19.116-16.041-49.064-16.042-68.183,0-9.852,8.266-15.952,20.125-17.411,33.691-12.479-5.521-25.798-6.165-37.883-1.768-23.45,8.535-38.425,34.472-34.091,59.048 2.232,12.664 9.453,23.877 20.472,31.924-11.019,8.047-18.239,19.26-20.472,31.924-4.334,24.576 10.641,50.513 34.091,59.048 12.085,4.396 25.404,3.752 37.883-1.768 1.459,13.566 7.56,25.426 17.411,33.691 9.559,8.021 21.825,12.03 34.091,12.03 12.267,0 24.533-4.01 34.092-12.03 9.852-8.267 15.952-20.125 17.41-33.691 12.479,5.521 25.799,6.165 37.884,1.768 23.45-8.535 38.424-34.472 34.091-59.048-2.234-12.665-9.454-23.877-20.473-31.924zm-122.004,0c0-10.477 8.523-19 19-19s19,8.523 19,19-8.523,19-19,19-19-8.524-19-19zm4.193-99.914c8.025-6.736 21.589-6.736 29.614-7.10543e-15 10.742,9.014 9.061,28.448-4.479,52.019-3.332-0.718-6.785-1.105-10.328-1.105s-6.997,0.387-10.328,1.105c-13.541-23.571-15.222-43.006-4.479-52.019zm-64.317,37.132c13.181-4.788 29.177,6.382 42.821,29.907-4.621,5.098-8.179,11.174-10.338,17.872-27.184-0.058-44.855-8.321-47.29-22.131-1.82-10.319 4.961-22.064 14.807-25.648zm0,125.563c-9.846-3.584-16.627-15.329-14.808-25.647 2.435-13.81 20.106-22.073 47.29-22.131 2.16,6.698 5.717,12.773 10.338,17.872-13.645,23.523-29.643,34.698-42.82,29.906zm93.931,37.133c-8.025,6.736-21.589,6.736-29.614,0-10.743-9.014-9.062-28.448 4.478-52.019 3.332,0.718 6.785,1.105 10.328,1.105s6.997-0.387 10.328-1.105c13.542,23.57 15.222,43.005 4.48,52.019zm64.318-37.134c-13.177,4.8-29.177-6.381-42.822-29.906 4.621-5.098 8.179-11.174 10.338-17.872 27.184,0.058 44.855,8.321 47.291,22.131 1.82,10.319-4.961,22.064-14.807,25.647zm14.807-99.914c-2.436,13.81-20.107,22.073-47.291,22.131-2.16-6.698-5.717-12.773-10.338-17.872 13.644-23.524 29.644-34.706 42.822-29.906 9.846,3.583 16.627,15.328 14.807,25.647z"/>
</svg>
